<?xml version="1.0" encoding="UTF-8" standalone="no"?><!DOCTYPE svg PUBLIC "-//W3C//DTD SVG 1.1//EN" "http://www.w3.org/Graphics/SVG/1.1/DTD/svg11.dtd"><svg width="100%" height="100%" viewBox="0 0 8000 4500" version="1.1" xmlns="http://www.w3.org/2000/svg" xmlns:xlink="http://www.w3.org/1999/xlink" xml:space="preserve" xmlns:serif="http://www.serif.com/" style="fill-rule:evenodd;clip-rule:evenodd;stroke-linejoin:round;stroke-miterlimit:2;"><g><path d="M2255.937,2998.533l-755.85,0l0,-624.725l249.883,0l0,374.904l483.971,0l0,0.337l20.079,0c274.254,0 496.608,-223.7 496.608,-499.754l0,-0.796c0,-276.05 -222.354,-499.867 -496.608,-499.867l-20.079,0l0,0.567l-483.971,0l0,374.788l-249.883,0l0,-249.992c0,-34.521 13.875,-65.633 36.55,-88.233c22.675,-22.596 53.925,-36.563 88.333,-36.563c34.521,0 65.658,-14.079 88.333,-36.679c22.225,-22.367 36.217,-53.029 36.667,-86.979l0,-1.479c0,-34.408 13.875,-65.633 36.55,-88.121c22.675,-22.596 53.925,-36.675 88.333,-36.675l381.083,0c410.983,0 744.233,335.325 744.233,749.008l0,1.25c0,413.679 -333.25,749.008 -744.233,749.008Z" style="fill:#ff6200;fill-rule:nonzero;"/><path d="M4006.083,1499.267l-755.85,0l0,629.817l249.883,0l0,-379.996l483.971,0l0,-0.342l20.079,0c274.246,0 496.625,223.704 496.625,499.754l0,0.796c0,276.054 -222.379,499.871 -496.625,499.871l-20.079,0l0,-0.571l-483.971,0l0,-376.933l-249.883,0l0,252.138c0,34.521 13.875,65.633 36.55,88.233c22.675,22.596 53.925,36.562 88.333,36.562c34.525,0 65.658,14.083 88.333,36.679c22.225,22.371 36.216,53.029 36.667,86.983l0,1.475c0,34.408 13.875,65.637 36.55,88.121c22.679,22.596 53.929,36.679 88.333,36.679l381.083,0c411,0 744.25,-335.329 744.25,-749.008l0,-1.25c0,-413.683 -333.25,-749.008 -744.25,-749.008Z" style="fill:#ff6200;fill-rule:nonzero;"/><path d="M6499.917,2254.708l0,-755.854l-624.708,0l0,249.888l374.875,0l0,483.967l0.333,0l0,20.083c0,274.25 -223.666,496.604 -499.75,496.604l-0.792,0c-276.042,0 -499.875,-222.354 -499.875,-496.604l0,-20.083l0.583,0l0,-483.971l374.791,0.004l0,-249.888l-250,0c-34.5,0 -65.625,13.879 -88.208,36.554c-22.625,22.675 -36.583,53.925 -36.583,88.333c0,34.521 -14.083,65.658 -36.667,88.333c-22.375,22.225 -53.042,36.212 -87,36.663l-1.458,0c-34.417,0 -65.667,13.879 -88.125,36.554c-22.583,22.675 -36.666,53.925 -36.666,88.333l0,381.083c0,410.979 335.292,744.233 749,744.233l1.25,0c413.667,0 749,-333.254 749,-744.233Z" style="fill:#ff6200;fill-rule:nonzero;"/></g></svg>