<?xml version="1.0" encoding="utf-8" standalone="no"?>
<!DOCTYPE svg PUBLIC "-//W3C//DTD SVG 1.1//EN" "http://www.w3.org/Graphics/SVG/1.1/DTD/svg11.dtd">
<svg version="1.1" width="2384pt" height="3370pt" viewBox="0 0 2383.92 3370.32" xmlns="http://www.w3.org/2000/svg">
  <defs />
  <g id="NeueCells">
    <path id="cell-1" d="M1143.8121,2538.9912 L1155.931,2416.268 A15.526463,15.526463 0 0 0 1143.8479,2399.5854 L865.2301,2337.6704 A15.526463,15.526463 0 0 0 852.2929,2340.5999 L638.4669,2507.942 A15.526463,15.526463 0 0 0 632.6197,2518.3232 L609.21173,2713.8313 A31.052925,31.052925 0 0 0 620.5275,2741.6763 L738.414,2836.934 A31.052925,31.052925 0 0 0 777.02765,2837.2676 L1132.0063,2560.4263 A31.052925,31.052925 0 0 0 1143.8121,2538.991" stroke="#ffffff" stroke-width="2" fill="rgba(66, 135, 245, 0.2)" />
    <path id="cell-2" d="M879.15173,2301.001 L1152.1571,2361.669 A15.526463,15.526463 0 0 0 1167.5183,2356.373 L1334.0815,2153.7961 A15.526463,15.526463 0 0 0 1337.4694,2146.0566 L1342.623,2108.6926 A15.526463,15.526463 0 0 0 1342.0336,2101.8506 L1218.8043,1715.7322 A15.526463,15.526463 0 0 0 1208.8264,1705.6914 L1014.43665,1642.3035 A15.526463,15.526463 0 0 0 998.6443,1646.086 L650.8036,1993.9268 A15.526463,15.526463 0 0 0 649.5737,2014.4983 L870.3112,2295.4368 A15.526463,15.526463 0 0 0 879.15173,2301.001" stroke="#ffffff" stroke-width="2" fill="rgba(245, 66, 135, 0.2)" />
    <path id="cell-3" d="M2031.814,2445.0789 L2155.7817,2361.4724 A31.052925,31.052925 0 0 0 2169.0493,2340.8325 L2214.2593,2069.573 A31.052925,31.052925 0 0 0 2208.8027,2046.2867 L2037.0647,1808.4955 A15.526463,15.526463 0 0 0 2017.7787,1803.5792 L1389.4873,2104.0664 A15.526463,15.526463 0 0 0 1380.8054,2115.952 L1376.5073,2147.113 A15.526463,15.526463 0 0 0 1385.537,2163.4026 L2016.7814,2446.374 A15.526463,15.526463 0 0 0 2031.814,2445.0786" stroke="#ffffff" stroke-width="2" fill="rgba(135, 245, 66, 0.2)" />
    <path id="cell-4" d="M2357.4417,939.9623 L2004.1411,720.6723 A7.760851,7.760851 0 0 0 1992.82,724.4354 L1752.8712,1337.638 L2001.4395,1484.5192 A7.768783,7.768783 0 0 0 2008.9321,1484.7408 L2246.7004,1362.9572 A31.052925,31.052925 0 0 0 2262.3352,1344.0808 L2370.8567,975.1082 A31.052925,31.052925 0 0 0 2357.4417,939.96234 M792.2973,1162.8776 L1383.113,1006.28955 L1377.4547,526.4871 L595.278,526.58545 L782.8671,1157.5856 A7.7632313,7.7632313 0 0 0 792.2973,1162.8776 M1250.5199,1673.8756 L1585.4318,1328.1603 L1383.113,1006.28955 L791.0506,1163.2079 A7.7786016,7.7786016 0 0 0 785.42615,1169.0367 L763.76105,1268.1241 A15.699424,15.699424 0 0 0 766.5338,1280.8062 L998.6005,1593.4294 A15.526502,15.526502 0 0 0 1006.2613,1598.9388 L1239.7606,1674.9509 L1242.5409,1675.856 A7.7632313,7.7632313 0 0 0 1250.5199,1673.8757 M1993.756,715.1669 L1901.7166,526.4862 L1377.4547,526.4871 L1383.113,1006.28955 L1585.4318,1328.1603 L1752.8712,1337.638 L1994.0079,721.3994 A7.7632313,7.7632313 0 0 0 1993.7559,715.1669" stroke="#ffffff" stroke-width="2" fill="rgba(245, 176, 66, 0.2)" />
    <path id="cell-6" d="M1248.676,1681.6625 L1374.0981,2074.6514 A15.526463,15.526463 0 0 0 1395.5885,2083.9375 L2014.4266,1787.9716 A15.526463,15.526463 0 0 0 2023.2225,1772.9756 L2005.2042,1490.6886 A7.7632313,7.7632313 0 0 0 2001.4061,1484.4995 L1754.498,1338.6005 A7.7632313,7.7632313 0 0 0 1750.9839,1337.5311 L1585.4318,1328.1603 L1250.4958,1673.9005 A7.7632313,7.7632313 0 0 0 1248.676,1681.6624" stroke="#ffffff" stroke-width="2" fill="rgba(245, 176, 66, 0.2)" />
    <path id="cell-5" d="M1212.7649,2388.4324 L1790.4796,2805.9087 A31.052925,31.052925 0 0 0 1809.5544,2811.78 L1878.7217,2809.8037 A31.052925,31.052925 0 0 0 1907.2942,2788.5833 L2011.3903,2476.2947 A15.526463,15.526463 0 0 0 2003.012,2457.2168 L1379.4802,2177.7026 A15.526463,15.526463 0 0 0 1379.4802,2177.7026 A15.526463,15.526463 0 0 0 1361.136,2182.0098 L1209.8658,2365.9868 A15.526463,15.526463 0 0 0 1212.7649,2388.4324" stroke="#ffffff" stroke-width="2" fill="rgba(135, 66, 245, 0.2)" />
    <path id="cell-9" d="M228.8387,2424.876 L620.5911,2498.8586 A7.7632313,7.7632313 0 0 0 626.8163,2497.3438 L833.01263,2335.9727 A15.526463,15.526463 0 0 0 835.6523,2314.153 L598.9091,2012.8434 A15.526463,15.526463 0 0 0 589.6056,2007.1838 L256.30627,1943.6982 A15.526463,15.526463 0 0 0 237.92276,1957.7285 L203.64459,2391.9185 A31.052925,31.052925 0 0 0 228.8387,2424.876" stroke="#ffffff" stroke-width="2" fill="rgba(135, 245, 66, 0.2)" />
    <path id="cell-11" d="M740.8832,1282.3828 L217.801,1498.8159 A7.7632313,7.7632313 0 0 0 212.8555,1505.4945 L187.58104,1853.0183 A31.052925,31.052925 0 0 0 194.86633,1875.3522 L232.72908,1920.0107 A15.526463,15.526463 0 0 0 241.66682,1925.2223 L588.86926,1991.3562 A15.526463,15.526463 0 0 0 602.7533,1987.0828 L977.0885,1612.7476 A15.526463,15.526463 0 0 0 978.5734,1592.5099 L750.0832,1284.9269 A7.7632313,7.7632313 0 0 0 740.8832,1282.3828 M768.76996,1163.0211 L579.07654,526.58545 L524.6583,526.58545 L17.663883,1229.936 A31.052925,31.052925 0 0 0 18.976686,1267.9469 L209.03426,1496.5374 A7.7632313,7.7632313 0 0 0 217.97185,1498.7476 L741.344,1282.1921 A7.8069715,7.8069715 0 0 0 745.9996,1276.6682 L769.08405,1171.0894 A16.186953,16.186953 0 0 0 768.76996,1163.0211" stroke="#ffffff" stroke-width="2" fill="rgba(135, 66, 245, 0.2)" />
  </g>

  <g id="Labels" style="pointer-events: none;">
    <text x="881.0153753846154" y="2560.6543538461538" font-family="Arial, sans-serif" font-size="120" font-weight="bold" fill="white" stroke="black" stroke-width="4" text-anchor="middle" dominant-baseline="middle">1</text>
    <text x="1069.7057673333334" y="2056.2743266666666" font-family="Arial, sans-serif" font-size="120" font-weight="bold" fill="white" stroke="black" stroke-width="4" text-anchor="middle" dominant-baseline="middle">2</text>
    <text x="1878.1140615384616" y="2176.7157538461543" font-family="Arial, sans-serif" font-size="120" font-weight="bold" fill="white" stroke="black" stroke-width="4" text-anchor="middle" dominant-baseline="middle">3</text>
    <text x="1503.442044444444" y="1134.447915" font-family="Arial, sans-serif" font-size="120" font-weight="bold" fill="white" stroke="black" stroke-width="4" text-anchor="middle" dominant-baseline="middle">4</text>
    <text x="1637.7256249999998" y="1644.6867916666667" font-family="Arial, sans-serif" font-size="120" font-weight="bold" fill="white" stroke="black" stroke-width="4" text-anchor="middle" dominant-baseline="middle">6</text>
    <text x="1596.3286833333332" y="2485.82115" font-family="Arial, sans-serif" font-size="120" font-weight="bold" fill="white" stroke="black" stroke-width="4" text-anchor="middle" dominant-baseline="middle">5</text>
    <text x="478.19436818181816" y="2255.404772727273" font-family="Arial, sans-serif" font-size="120" font-weight="bold" fill="white" stroke="black" stroke-width="4" text-anchor="middle" dominant-baseline="middle">9</text>
    <text x="501.16595495833326" y="1425.5680666666665" font-family="Arial, sans-serif" font-size="120" font-weight="bold" fill="white" stroke="black" stroke-width="4" text-anchor="middle" dominant-baseline="middle">11</text>
  </g>
</svg>