<?xml version="1.0" encoding="utf-8" standalone="no"?>
<!DOCTYPE svg PUBLIC "-//W3C//DTD SVG 1.1//EN" "http://www.w3.org/Graphics/SVG/1.1/DTD/svg11.dtd">
<svg version="1.1" width="2384pt" height="3370pt" viewBox="0 0 2383.92 3370.32" xmlns="http://www.w3.org/2000/svg">
  <defs />
  <g id="NeueCells">
    <path id="cell-1" d="M100.28592,1796.2357 L19.788317,1898.1993 A37.127346,37.127346 0 0 0 29.251476,1952.689 L503.9935,2249.4028 A18.563673,18.563673 0 0 0 524.0351,2249.1692 L588.4891,2206.7654 A18.563673,18.563673 0 0 0 596.84985,2191.2568 L596.84985,1977.378 A9.541634,9.541634 0 0 0 594.2853,1970.8818 L392.5307,1754.7163 A9.295186,9.295186 0 0 0 384.6493,1751.8335 L125.08877,1782.3684 A37.127346,37.127346 0 0 0 100.28593,1796.2357 M392.55173,1754.7388 L591.839,1968.2609 A9.2818365,9.2818365 0 0 0 606.2285,1967.2505 L902.45605,1544.0684 A18.563673,18.563673 0 0 0 900.6199,1520.5461 L744.5652,1358.4894 A18.563673,18.563673 0 0 0 724.4288,1354.0786 L459.25858,1457.8408 A37.127346,37.127346 0 0 0 436.22534,1485.9633 L390.19666,1746.7925 A9.2818365,9.2818365 0 0 0 392.55173,1754.7388" stroke="#ffffff" stroke-width="2" fill="rgba(66, 135, 245, 0.2)" />
    <path id="cell-2" d="M643.25903,2001.1296 L643.25903,2163.3372 A18.563673,18.563673 0 0 0 657.0984,2181.2896 L985.16296,2267.6223 A18.563673,18.563673 0 0 0 1005.4245,2259.8289 L1374.6487,1695.1332 A18.563673,18.563673 0 0 0 1377.021,1680.0898 L1370.8529,1657.4736 A18.563673,18.563673 0 0 0 1356.1434,1644.0723 L951.70624,1573.2959 A18.563673,18.563673 0 0 0 933.2983,1580.936 L646.61475,1990.4839 A18.563673,18.563673 0 0 0 643.25903,2001.1295" stroke="#ffffff" stroke-width="2" fill="rgba(245, 66, 135, 0.2)" />
    <path id="cell-3" d="M2206.0645,1887.9071 L2321.8557,1746.3052 A37.127346,37.127346 0 0 0 2327.1287,1707.9213 L2273.9678,1586.4109 A18.563673,18.563673 0 0 0 2267.7505,1578.7457 L1990.6921,1380.8469 A18.563673,18.563673 0 0 0 1979.1174,1377.4058 L1660.9862,1390.8696 A18.563673,18.563673 0 0 0 1651.6864,1393.8312 L1460.6388,1517.4502 A18.563673,18.563673 0 0 0 1454.2592,1524.4604 L1410.6383,1608.2125 A18.563673,18.563673 0 0 0 1409.1931,1621.6722 L1426.2458,1684.1987 A18.563673,18.563673 0 0 0 1431.6895,1693.0697 L1672.3806,1911.196 A18.563673,18.563673 0 0 0 1685.3915,1915.9962 L2178.413,1901.516 A37.127346,37.127346 0 0 0 2206.0645,1887.9072" stroke="#ffffff" stroke-width="2" fill="rgba(135, 245, 66, 0.2)" />
    <path id="cell-4" d="M1443.3983,1505.1266 L1427.5956,1535.4678 L1398.554,1591.2279 A18.563673,18.563673 0 0 1 1378.8895,1600.9385 L933.7556,1523.04 A18.563673,18.563673 0 0 1 923.5838,1517.6307 L751.9123,1339.3564 A18.563673,18.563673 0 0 1 746.7845,1328.0215 L731.97986,1150.3661 A9.2818365,9.2818365 0 0 1 738.10785,1140.8541 L1153.2385,992.59314 L1310.7516,1113.0442 L1443.9373,1497.8029 A9.2818365,9.2818365 0 0 1 1443.3983,1505.1267 M1508.4692,775.7976 L1259.8584,585.68335 A37.127346,37.127346 0 0 0 1207.0936,593.59595 L1111.3499,724.2337 A9.2818365,9.2818365 0 0 0 1109.6808,731.2464 L1153.2385,992.59314 L1310.7516,1113.0442 L1510.7372,788.0676 A9.314156,9.314156 0 0 0 1508.4694,775.7976 M1110.4119,735.6327 L1153.2385,992.59314 L736.03125,1141.5957 A9.2818365,9.2818365 0 0 1 724.5386,1136.8649 L703.0151,1091.937 A37.127346,37.127346 0 0 1 704.3381,1054.008 L882.7579,776.4662 A37.127346,37.127346 0 0 1 907.8849,759.9209 L1099.6917,727.9531 A9.343473,9.343473 0 0 1 1110.4119,735.6327" stroke="#ffffff" stroke-width="2" fill="rgba(245, 176, 66, 0.2)" />
    <path id="cell-5" d="M1519.5103,782.23956 L1772.338,782.23956 A18.563673,18.563673 0 0 1 1790.327,805.38654 L1646.7135,1369.0503 A18.563673,18.563673 0 0 1 1638.8093,1380.0525 L1456.2295,1498.1924 A9.300209,9.300209 0 0 1 1442.4133,1493.4003 L1310.7516,1113.0442 L1511.6055,786.65686 A9.2818365,9.2818365 0 0 1 1519.5104,782.23956" stroke="#ffffff" stroke-width="2" fill="rgba(245, 176, 66, 0.2)" />
    <path id="cell-8" d="M1659.7778,1924.8274 L1437.3588,1723.26 A18.563673,18.563673 0 0 0 1409.3556,1726.8564 L1031.719,2304.4185 A18.563673,18.563673 0 0 0 1031.2213,2323.931 L1167.2898,2557.1914 L1696.6459,2472.3145 L1665.845,1937.5154 A18.563673,18.563673 0 0 0 1659.7778,1924.8274" stroke="#ffffff" stroke-width="2" fill="rgba(245, 66, 135, 0.2)" />
    <path id="cell-9" d="M1995.2152,1353.1598 L2168.2092,989.06604 A9.292053,9.292053 0 0 0 2168.2812,981.25354 L2033.3743,682.65704 A37.127346,37.127346 0 0 0 1978.5358,667.32874 L1822.0614,774.6819 A18.563673,18.563673 0 0 0 1814.5745,785.406 L1671.2515,1347.9299 A18.563673,18.563673 0 0 0 1690.0254,1371.0603 L1987.1793,1358.4843 A9.345581,9.345581 0 0 0 1995.2152,1353.1598 M1995.6863,1352.1688 L2167.066,991.4721 A9.273688,9.273688 0 0 1 2179.915,987.3367 L2323.5676,1066.3457 A37.127346,37.127346 0 0 1 2342.477,1093.9703 L2371.7927,1313.8379 A37.127346,37.127346 0 0 1 2369.322,1332.881 L2284.1775,1539.6604 A18.563673,18.563673 0 0 1 2256.2222,1547.6981 L1998.6782,1363.7383 A9.315562,9.315562 0 0 1 1995.6862,1352.1687" stroke="#ffffff" stroke-width="2" fill="rgba(135, 245, 66, 0.2)" />
    <path id="cell-11" d="M1148.7625,2562.2722 L1012.32666,2328.3823 A18.563673,18.563673 0 0 0 1001.0161,2319.7834 L615.78265,2218.4062 A18.563673,18.563673 0 0 0 600.8554,2220.8503 L524.3714,2271.1687 A18.563673,18.563673 0 0 0 518.85767,2276.798 L498.2531,2309.5781 A37.127346,37.127346 0 0 0 492.73178,2325.76 L468.48868,2576.272 A37.127346,37.127346 0 0 0 473.87527,2599.3904 L582.39185,2774.6865 A37.127346,37.127346 0 0 0 623.6225,2790.9922 L1110.2599,2659.8218 A37.127346,37.127346 0 0 0 1136.6298,2632.9238 L1150.7438,2576.1006 A18.563673,18.563673 0 0 0 1148.7625,2562.2722" stroke="#ffffff" stroke-width="2" fill="rgba(135, 66, 245, 0.2)" />
  </g>

  <g id="Labels" style="pointer-events: none;">
    <text x="462.3876917916666" y="1812.079166666667" font-family="Arial, sans-serif" font-size="120" font-weight="bold" fill="white" stroke="black" stroke-width="4" text-anchor="middle" dominant-baseline="middle">1</text>
    <text x="968.2883261538462" y="1899.6786000000002" font-family="Arial, sans-serif" font-size="120" font-weight="bold" fill="white" stroke="black" stroke-width="4" text-anchor="middle" dominant-baseline="middle">2</text>
    <text x="1842.8507157894737" y="1648.206463157895" font-family="Arial, sans-serif" font-size="120" font-weight="bold" fill="white" stroke="black" stroke-width="4" text-anchor="middle" dominant-baseline="middle">3</text>
    <text x="1110.2380442424244" y="1077.9775884848486" font-family="Arial, sans-serif" font-size="120" font-weight="bold" fill="white" stroke="black" stroke-width="4" text-anchor="middle" dominant-baseline="middle">4</text>
    <text x="1560.8208399999999" y="1079.250178" font-family="Arial, sans-serif" font-size="120" font-weight="bold" fill="white" stroke="black" stroke-width="4" text-anchor="middle" dominant-baseline="middle">5</text>
    <text x="1417.6656666666665" y="2099.460222222222" font-family="Arial, sans-serif" font-size="120" font-weight="bold" fill="white" stroke="black" stroke-width="4" text-anchor="middle" dominant-baseline="middle">8</text>
    <text x="2073.114259090909" y="1163.8847890909092" font-family="Arial, sans-serif" font-size="120" font-weight="bold" fill="white" stroke="black" stroke-width="4" text-anchor="middle" dominant-baseline="middle">9</text>
    <text x="771.0430329411765" y="2470.909335294117" font-family="Arial, sans-serif" font-size="120" font-weight="bold" fill="white" stroke="black" stroke-width="4" text-anchor="middle" dominant-baseline="middle">11</text>
  </g>
</svg>